<mxfile host="app.diagrams.net" modified="2023-11-02T01:27:23.561Z" agent="Mozilla/5.0 (Macintosh; Intel Mac OS X 10_15_7) AppleWebKit/605.1.15 (KHTML, like Gecko) Version/17.0 Safari/605.1.15" version="22.0.8" etag="nhqOTpnK4IZXcsT9Un_Z" type="github">
  <diagram name="第 1 页" id="v6khz4VdSv4FjKsVTDLu">
    <mxGraphModel>
      <root>
        <mxCell id="0" />
        <mxCell id="1" parent="0" />
      </root>
    </mxGraphModel>
  </diagram>
</mxfile>
